# xmcd
# 
# Track frame offsets:
#     182
#     12185
#     25645
#     35427
#     48115
#     61910
#     72460
#     85172
#     102705
#     116690
#     128842
#     142920
# 
# Disc length: 2087
# 
# Revision: 1
# Processed by: cddbd v1.5.2PL0 Copyright (c) Steve Scherf et al.
# Submitted via: BonkEnc v1.0
# 
DISCID=9b08250c
DTITLE=Various Artist - Best Of Love Music 50's
DYEAR=0
DGENRE=Pop
TTITLE0=Johnie Ray - Just Walking In The Rain
TTITLE1=Doris Day - When I Fall In Love
TTITLE2=Frankie Laine - I Believe
TTITLE3=Vic Damone - An Affair To Rememlber
TTITLE4=Brothers Four - Greenfields
TTITLE5=Roger Miller - Please Release Me
TTITLE6=Rosemary Clooney - Half As Much
TTITLE7=Vic Damone - Smoke Gets In You Eyes
TTITLE8=Tony Bennett - Stranger In Paradise
TTITLE9=Frankie Laine - High Noon
TTITLE10=Doris Day - I'll Never Stop Loving You
TTITLE11=Johnny Mathis - Chances Are
EXTD=
EXTT0=
EXTT1=
EXTT2=
EXTT3=
EXTT4=
EXTT5=
EXTT6=
EXTT7=
EXTT8=
EXTT9=
EXTT10=
EXTT11=
PLAYORDER=
